HIERARCHY
ROOT root
{
	OFFSET 0.000000 0.000000 0.000000
	CHANNELS 6 Xposition Yposition Zposition Zrotation Yrotation Xrotation
	JOINT lhip
	{
		OFFSET 0.058581 -0.082280 -0.017664
		CHANNELS 3 Zrotation Yrotation Xrotation
		JOINT lknee
		{
			OFFSET 0.043451 -0.386469 0.008037
			CHANNELS 3 Zrotation Yrotation Xrotation
			JOINT lankle
			{
				OFFSET -0.014790 -0.426874 -0.037428
				CHANNELS 3 Zrotation Yrotation Xrotation
				JOINT ltoe
				{
					OFFSET 0.041054 -0.060286 0.122042
					CHANNELS 3 Zrotation Yrotation Xrotation
					End Site
					{
						OFFSET 0.000000 0.000000 0.000000
					}
				}
			}
		}
	}
	JOINT rhip
	{
		OFFSET -0.060310 -0.090513 -0.013543
		CHANNELS 3 Zrotation Yrotation Xrotation
		JOINT rknee
		{
			OFFSET -0.043257 -0.383688 -0.004843
			CHANNELS 3 Zrotation Yrotation Xrotation
			JOINT rankle
			{
				OFFSET 0.019056 -0.420046 -0.034562
				CHANNELS 3 Zrotation Yrotation Xrotation
				JOINT rtoe
				{
					OFFSET -0.034840 -0.062106 0.130323
					CHANNELS 3 Zrotation Yrotation Xrotation
					End Site
					{
						OFFSET 0.000000 0.000000 0.000000
					}
				}
			}
		}
	}
	JOINT lowerback
	{
		OFFSET 0.004439 0.124404 -0.038385
		CHANNELS 3 Zrotation Yrotation Xrotation
		JOINT upperback
		{
			OFFSET 0.004488 0.137956 0.026820
			CHANNELS 3 Zrotation Yrotation Xrotation
			JOINT chest
			{
				OFFSET -0.002265 0.056032 0.002855
				CHANNELS 3 Zrotation Yrotation Xrotation
				JOINT lowerneck
				{
					OFFSET -0.013390 0.211636 -0.033468
					CHANNELS 3 Zrotation Yrotation Xrotation
					JOINT upperneck
					{
						OFFSET 0.010113 0.088937 0.050410
						CHANNELS 3 Zrotation Yrotation Xrotation
						End Site
						{
							OFFSET 0.000000 0.000000 0.000000
						}
					}
				}
				JOINT lclavicle
				{
					OFFSET 0.071702 0.114000 -0.018898
					CHANNELS 3 Zrotation Yrotation Xrotation
					JOINT lshoulder
					{
						OFFSET 0.122921 0.045205 -0.019046
						CHANNELS 3 Zrotation Yrotation Xrotation
						JOINT lelbow
						{
							OFFSET 0.255332 -0.015649 -0.022946
							CHANNELS 3 Zrotation Yrotation Xrotation
							JOINT lwrist
							{
								OFFSET 0.265709 0.012698 -0.007375
								CHANNELS 3 Zrotation Yrotation Xrotation
								End Site
								{
									OFFSET 0.000000 0.000000 0.000000
								}
							}
						}
					}
				}
				JOINT rclavicle
				{
					OFFSET -0.082954 0.112472 -0.023707
					CHANNELS 3 Zrotation Yrotation Xrotation
					JOINT rshoulder
					{
						OFFSET -0.113228 0.046853 -0.008472
						CHANNELS 3 Zrotation Yrotation Xrotation
						JOINT relbow
						{
							OFFSET -0.260127 -0.014369 -0.031269
							CHANNELS 3 Zrotation Yrotation Xrotation
							JOINT rwrist
							{
								OFFSET -0.269108 0.006794 -0.006027
								CHANNELS 3 Zrotation Yrotation Xrotation
								End Site
								{
									OFFSET 0.000000 0.000000 0.000000
								}
							}
						}
					}
				}
			}
		}
	}
}
MOTION
Frames: 8
Frame Time: 0.033333
0.048715 -1.250311 0.982053 -92.249111 -1.680627 80.592666 -1.398905 1.157772 5.889863 -0.853089 -8.741696 7.470250 3.129619 11.330090 -11.537263 0.000000 -0.000000 0.000000 -3.279522 -2.702116 7.294787 -1.383076 -3.658924 2.740673 1.504879 -12.004758 -12.623922 0.000000 -0.000000 0.000000 -2.919159 4.045445 9.337574 -2.257371 -2.696541 14.408908 -1.053272 -0.068620 0.543530 1.921115 8.201367 -5.705913 5.200594 2.698906 -4.811557 -28.899647 -12.160412 7.175134 -45.569104 -7.315846 6.141372 4.826399 -23.666446 -1.214728 -3.385904 -1.894915 0.152532 29.969667 17.286677 11.351690 52.400030 10.658100 10.591133 -11.522850 24.641622 -9.881447 3.516551 4.323801 -7.275644 
0.048981 -1.250328 0.981982 -92.244959 -1.556161 80.604810 -1.244468 1.064656 5.778685 -0.927477 -8.761260 7.637168 2.973240 11.256807 -11.587110 0.000000 -0.000000 0.000000 -3.169311 -2.752049 7.189614 -1.331876 -3.618760 2.872863 1.486643 -11.928504 -12.659495 0.000000 -0.000000 0.000000 -2.768012 4.051964 9.687792 -2.237222 -2.695078 14.144095 -1.023442 -0.007529 0.601465 1.820633 8.189529 -5.681714 5.224319 2.692484 -4.977296 -28.808161 -12.385516 7.207654 -45.707176 -7.187329 6.278040 5.031559 -23.730548 -1.343188 -3.017269 -1.549413 -0.192998 29.888959 17.327795 11.219286 52.448822 10.379683 10.599813 -11.830875 25.093821 -9.861643 3.561603 4.293104 -7.468263 
0.049508 -1.250634 0.981824 -92.274472 -1.523399 80.612757 -1.223459 0.975964 5.560541 -1.015883 -8.635132 7.978835 3.046671 11.319384 -11.703140 0.000000 -0.000000 0.000000 -3.209222 -2.771123 6.962220 -1.255207 -3.647017 3.211774 1.441365 -11.884385 -12.731510 0.000000 -0.000000 0.000000 -2.570143 4.028460 10.076315 -2.332690 -2.680846 13.942124 -1.098165 0.005391 0.751517 1.712632 8.184840 -5.851603 5.258529 2.657082 -5.233727 -28.809343 -12.483126 7.247139 -45.575294 -7.232467 6.158445 5.180099 -24.083310 -1.301390 -3.242643 -1.725704 -0.370665 29.766219 17.413672 11.209099 52.461254 10.362343 10.573409 -12.050071 25.650810 -9.811505 3.683174 4.353162 -7.770825 
0.051086 -1.251711 0.981573 -92.378111 -1.485349 80.714672 -1.215307 0.760271 4.809944 -1.272475 -8.414149 8.998547 3.289019 11.434915 -11.946023 0.000000 -0.000000 0.000000 -3.324316 -2.759240 6.308284 -1.132988 -3.663803 4.004824 1.400392 -11.753839 -12.865439 0.000000 -0.000000 0.000000 -1.986431 3.916437 10.934189 -2.617679 -2.699346 13.475760 -1.423576 0.074187 1.020842 1.348541 8.241356 -6.301830 5.275212 2.509569 -6.094838 -28.664017 -12.461328 7.043266 -45.187580 -7.189068 5.904239 5.324505 -25.153489 -1.279695 -3.832009 -1.927979 -0.649528 29.461309 17.443720 11.144784 52.626860 10.317488 10.577541 -12.542274 27.148392 -9.687011 3.544825 4.520887 -8.043635 
0.051962 -1.252203 0.981379 -92.414904 -1.497257 80.803031 -1.241841 0.668745 4.395579 -1.396916 -8.332880 9.484617 3.378327 11.467093 -12.051222 0.000000 -0.000000 0.000000 -3.387442 -2.732070 5.946275 -1.100729 -3.680925 4.377140 1.369949 -11.700791 -12.937546 0.000000 -0.000000 0.000000 -1.749046 3.868454 11.320722 -2.738658 -2.726690 13.311997 -1.576760 0.117139 1.066718 1.145298 8.247317 -6.559961 5.254481 2.427810 -6.555745 -28.593106 -12.462015 6.924669 -44.993817 -7.082814 5.811742 5.429743 -25.829246 -1.422326 -3.976122 -1.949048 -0.784696 29.363540 17.446495 11.106176 52.674799 10.197116 10.554099 -12.860801 28.047607 -9.698461 3.344116 4.691177 -7.989881 
0.054487 -1.253232 0.980841 -92.572894 -1.549173 81.175018 -1.287734 0.463197 3.218618 -1.708899 -8.018574 10.634419 3.600698 11.482248 -12.309630 0.000000 -0.000000 0.000000 -3.568948 -2.782384 4.763240 -1.022153 -3.671316 5.453813 1.293526 -11.428487 -13.127323 0.000000 -0.000000 0.000000 -1.299834 3.823713 12.104015 -2.956744 -2.789303 13.078720 -1.889362 0.233249 1.020683 0.638998 8.263667 -7.263284 5.157809 2.202046 -7.573462 -28.416089 -12.484597 6.650808 -44.514823 -6.739383 5.664379 5.825739 -27.861841 -1.910372 -4.030965 -1.986023 -1.052915 29.236869 17.422480 11.041164 52.611889 9.821459 10.397996 -13.811634 30.539308 -9.933393 2.703234 5.241494 -7.695535 
0.058286 -1.254236 0.980552 -93.008453 -1.588919 81.883142 -1.211834 0.262701 1.504842 -2.094799 -7.265863 12.056066 3.985025 11.337556 -12.716658 0.000000 -0.000000 0.000000 -3.820137 -3.237597 2.731200 -0.881330 -3.508148 7.220242 1.254044 -10.654492 -13.347873 0.000000 -0.000000 0.000000 -0.928250 3.959941 12.733742 -3.099202 -2.799656 13.126677 -2.158351 0.353987 0.654054 0.115316 8.357583 -8.129693 4.966742 1.931666 -8.368596 -28.169076 -12.488954 6.336349 -43.908770 -6.302153 5.664035 6.571601 -30.830213 -2.463398 -3.771656 -2.073027 -1.183664 29.193026 17.328356 11.026275 52.249149 9.448062 10.083763 -15.150982 33.715747 -10.594519 1.979400 5.878759 -7.500284 
0.062769 -1.255036 0.980474 -93.519397 -1.562850 82.653718 -0.986243 0.057397 -0.420750 -2.527505 -6.374028 13.736164 4.453310 11.133769 -13.285584 0.000000 -0.000000 0.000000 -3.988118 -3.760545 0.393261 -0.698401 -3.351338 9.382685 1.236652 -9.784434 -13.628241 0.000000 -0.000000 0.000000 -0.693301 4.148967 13.396398 -3.148257 -2.761894 13.241916 -2.312950 0.438553 0.227305 -0.287290 8.564443 -8.991773 4.710444 1.687405 -8.810913 -27.708906 -12.426900 5.959341 -43.282666 -5.934477 5.693258 7.855706 -34.549128 -2.934166 -3.656847 -2.146322 -1.119485 29.017753 17.199355 10.980081 51.764412 9.229741 9.671390 -16.976613 37.290948 -11.675800 1.569266 6.350597 -7.673372 
